<svg width="45" height="45" viewBox="0 0 45 45" fill="none" xmlns="http://www.w3.org/2000/svg">
<path d="M22.5 45C10.125 45 0 34.875 0 22.5C0 10.125 10.125 0 22.5 0C34.875 0 45 10.125 45 22.5C45 34.875 34.875 45 22.5 45ZM22.5 2.25C11.3625 2.25 2.25 11.3625 2.25 22.5C2.25 33.6375 11.3625 42.75 22.5 42.75C33.6375 42.75 42.75 33.6375 42.75 22.5C42.75 11.3625 33.6375 2.25 22.5 2.25Z" fill="white"/>
<path d="M32.7305 14.8271C32.7305 14.8271 29.8037 12.5332 26.3408 12.2695L26.0332 12.8936C29.1621 13.6582 30.5947 14.7568 32.0977 16.1016C29.5137 14.7832 26.9561 13.5439 22.5088 13.5439C18.0615 13.5439 15.5039 14.7832 12.9199 16.1016C14.4229 14.7568 16.1279 13.5352 18.9844 12.8936L18.6768 12.2695C15.0469 12.6123 12.2871 14.8271 12.2871 14.8271C12.2871 14.8271 9.01758 19.5732 8.45508 28.8897C11.751 32.6953 16.7607 32.7217 16.7607 32.7217L17.8066 31.3242C16.0313 30.709 14.0186 29.6016 12.2871 27.6064C14.3525 29.1709 17.4814 30.8057 22.5176 30.8057C27.5537 30.8057 30.6738 29.1797 32.7481 27.6064C31.0166 29.6016 29.0039 30.709 27.2285 31.3242L28.2744 32.7217C28.2744 32.7217 33.2842 32.6953 36.5801 28.8897C36 19.5732 32.7305 14.8271 32.7305 14.8271ZM18.3428 26.332C17.1035 26.332 16.1016 25.1895 16.1016 23.7744C16.1016 22.3594 17.1035 21.2168 18.3428 21.2168C19.582 21.2168 20.584 22.3594 20.584 23.7744C20.584 25.1895 19.582 26.332 18.3428 26.332ZM26.6572 26.332C25.418 26.332 24.416 25.1895 24.416 23.7744C24.416 22.3594 25.418 21.2168 26.6572 21.2168C27.8965 21.2168 28.8984 22.3594 28.8984 23.7744C28.8984 25.1895 27.8877 26.332 26.6572 26.332Z" fill="white"/>
</svg>
