<svg width="45" height="45" viewBox="0 0 45 45" fill="none" xmlns="http://www.w3.org/2000/svg">
<path d="M22.5 45C10.125 45 0 34.875 0 22.5C0 10.125 10.125 0 22.5 0C34.875 0 45 10.125 45 22.5C45 34.875 34.875 45 22.5 45ZM22.5 2.25C11.3625 2.25 2.25 11.3625 2.25 22.5C2.25 33.6375 11.3625 42.75 22.5 42.75C33.6375 42.75 42.75 33.6375 42.75 22.5C42.75 11.3625 33.6375 2.25 22.5 2.25Z" fill="white"/>
<path fill-rule="evenodd" clip-rule="evenodd" d="M17.492 18.9828H12V18.2845H12C12 25.0187 12 29.2241 12 29.2241C12 32.25 15.0259 32.25 15.0259 32.25H29.2241C29.2241 32.25 32.25 32.25 32.25 29.2241V18.9828V18.2845H26.315C25.3596 17.0125 23.8384 16.1897 22.125 16.1897C20.4116 16.1897 18.8904 17.0125 17.935 18.2845H12C12 17.2553 12 16.1671 12 15.0259C12 13.1159 13.2056 12.4115 14.0948 12.1518V16.1897H14.7931V12.0149C14.9384 12 15.0259 12 15.0259 12H29.2241C29.2241 12 32.25 12 32.25 15.0259V18.9828H26.758C27.1437 19.7124 27.3621 20.544 27.3621 21.4267C27.3621 24.3191 25.0174 26.6638 22.125 26.6638C19.2326 26.6638 16.8879 24.3191 16.8879 21.4267C16.8879 20.544 17.1063 19.7124 17.492 18.9828ZM28.5734 13.3966C27.9044 13.3966 27.3621 13.9421 27.3621 14.6079V15.6766C27.3621 16.3456 27.9076 16.8879 28.5734 16.8879H29.6421C30.3111 16.8879 30.8534 16.3424 30.8534 15.6766V14.6079C30.8534 13.9389 30.3079 13.3966 29.6421 13.3966H28.5734ZM16.8879 12V16.1897H17.5862V12H16.8879ZM15.4914 12V16.1897H16.1897V12H15.4914ZM22.125 25.6164C24.4389 25.6164 26.3147 23.7406 26.3147 21.4267C26.3147 19.1128 24.4389 17.2371 22.125 17.2371C19.8111 17.2371 17.9353 19.1128 17.9353 21.4267C17.9353 23.7406 19.8111 25.6164 22.125 25.6164ZM22.125 24.2198C23.6676 24.2198 24.9181 22.9693 24.9181 21.4267C24.9181 19.8841 23.6676 18.6336 22.125 18.6336C20.5824 18.6336 19.3319 19.8841 19.3319 21.4267C19.3319 22.9693 20.5824 24.2198 22.125 24.2198Z" fill="white"/>
</svg>
