<svg width="280" height="39" viewBox="0 0 280 39" fill="none" xmlns="http://www.w3.org/2000/svg">
<path d="M24.9467 12.6411C21.5242 8.75443 14.5423 0.981018 13.9947 0.981018H23.5777L33.8451 12.6411L0.989258 38.019L24.9467 12.6411Z" fill="url(#paint0_linear_442_1647)"/>
<path d="M34.5296 20.8718L40.0056 17.4424L52.3266 29.7884H43.4281L34.5296 20.8718Z" fill="url(#paint1_linear_442_1647)"/>
<path d="M11.1551 33.4527L51.1359 0.981018H61.4758L11.1551 33.4527Z" fill="url(#paint2_linear_442_1647)"/>
<path d="M67.6489 29.6855V28.8933L75.7379 19.5L67.6489 10.1068V9.31458H71.5479L78.0657 16.8122L84.5544 9.31458H88.4534V10.1068L80.3353 19.5L88.4534 28.865V29.6855H84.5544L78.0366 22.1879L71.5479 29.6855H67.6489Z" fill="white"/>
<path d="M91.6111 29.6855V9.31458H110.844V12.738H95.1319V17.8025H107.789V21.1976H95.1319V26.262H110.844V29.6855H91.6111Z" fill="white"/>
<path d="M113.83 29.6855V9.31458H117.817L131.26 24.8757V9.31458H134.78V29.6855H130.794L117.322 14.0961V29.6855H113.83Z" fill="white"/>
<path d="M141.91 29.6855C141.192 29.6855 140.533 29.5157 139.932 29.1762C139.33 28.8367 138.855 28.3746 138.506 27.7899C138.157 27.2051 137.982 26.5638 137.982 25.8659V13.1341C137.982 12.4362 138.157 11.7949 138.506 11.2102C138.855 10.6255 139.33 10.1634 139.932 9.82385C140.533 9.48433 141.192 9.31458 141.91 9.31458H155.004C155.722 9.31458 156.371 9.48433 156.953 9.82385C157.555 10.1634 158.03 10.6255 158.379 11.2102C158.748 11.7949 158.932 12.4362 158.932 13.1341V25.8659C158.932 26.5638 158.748 27.2051 158.379 27.7899C158.03 28.3746 157.555 28.8367 156.953 29.1762C156.371 29.5157 155.722 29.6855 155.004 29.6855H141.91ZM141.997 26.262H154.888C155.023 26.262 155.14 26.2149 155.237 26.1206C155.353 26.0263 155.411 25.9037 155.411 25.7528V13.2473C155.411 13.0964 155.353 12.9738 155.237 12.8795C155.14 12.7852 155.023 12.738 154.888 12.738H141.997C141.862 12.738 141.736 12.7852 141.619 12.8795C141.522 12.9738 141.474 13.0964 141.474 13.2473V25.7528C141.474 25.9037 141.522 26.0263 141.619 26.1206C141.736 26.2149 141.862 26.262 141.997 26.262Z" fill="white"/>
<path d="M172.75 29.6855L160.616 9.31458H164.69L174.379 25.6962L184.097 9.31458H188.142L176.008 29.6855H172.75Z" fill="white"/>
<path d="M190.468 29.6855V9.31458H209.701V12.738H193.988V17.8025H206.646V21.1976H193.988V26.262H209.701V29.6855H190.468Z" fill="white"/>
<path d="M229.622 29.6855L223.191 22.2161H227.759L233.55 28.8933V29.6855H229.622ZM212.687 29.6855V9.34287H229.709C230.427 9.34287 231.076 9.52206 231.658 9.88043C232.26 10.2199 232.735 10.6821 233.084 11.2668C233.453 11.8326 233.637 12.4645 233.637 13.1624V18.7644C233.637 19.4434 233.453 20.0753 233.084 20.66C232.735 21.2448 232.26 21.7069 231.658 22.0464C231.076 22.3859 230.427 22.5557 229.709 22.5557L216.179 22.584V29.6855H212.687ZM216.702 19.1322H229.592C229.728 19.1322 229.845 19.0851 229.942 18.9908C230.058 18.8964 230.116 18.7738 230.116 18.6229V13.2473C230.116 13.1153 230.058 13.0021 229.942 12.9078C229.845 12.7946 229.728 12.738 229.592 12.738H216.702C216.567 12.738 216.441 12.7946 216.324 12.9078C216.227 13.0021 216.179 13.1153 216.179 13.2473V18.6229C216.179 18.7738 216.227 18.8964 216.324 18.9908C216.441 19.0851 216.567 19.1322 216.702 19.1322Z" fill="white"/>
<path d="M240.51 29.6855C239.792 29.6855 239.132 29.5157 238.531 29.1762C237.949 28.8367 237.483 28.3746 237.134 27.7899C236.785 27.2051 236.611 26.5638 236.611 25.8659V24.5079H240.102V25.7528C240.102 25.9037 240.151 26.0263 240.248 26.1206C240.345 26.2149 240.471 26.262 240.626 26.262H253.487C253.642 26.262 253.768 26.2149 253.865 26.1206C253.982 26.0263 254.04 25.9037 254.04 25.7528V21.7069C254.04 21.5748 253.982 21.4617 253.865 21.3674C253.768 21.2542 253.642 21.1976 253.487 21.1976H240.51C239.792 21.1976 239.132 21.0278 238.531 20.6883C237.949 20.3488 237.483 19.8961 237.134 19.3303C236.785 18.7455 236.611 18.1042 236.611 17.4063V13.1341C236.611 12.4362 236.785 11.7949 237.134 11.2102C237.483 10.6255 237.949 10.1634 238.531 9.82385C239.132 9.48433 239.792 9.31458 240.51 9.31458H253.632C254.35 9.31458 255 9.48433 255.582 9.82385C256.183 10.1634 256.659 10.6255 257.008 11.2102C257.376 11.7949 257.561 12.4362 257.561 13.1341V14.4922H254.04V13.2473C254.04 13.0964 253.982 12.9738 253.865 12.8795C253.768 12.7852 253.642 12.738 253.487 12.738H240.626C240.471 12.738 240.345 12.7852 240.248 12.8795C240.151 12.9738 240.102 13.0964 240.102 13.2473V17.2932C240.102 17.4252 240.151 17.5478 240.248 17.661C240.345 17.7553 240.471 17.8025 240.626 17.8025H253.632C254.35 17.8025 255 17.9722 255.582 18.3117C256.183 18.6512 256.659 19.1134 257.008 19.6981C257.376 20.2639 257.561 20.8958 257.561 21.5937V25.8659C257.561 26.5638 257.376 27.2051 257.008 27.7899C256.659 28.3746 256.183 28.8367 255.582 29.1762C255 29.5157 254.35 29.6855 253.632 29.6855H240.51Z" fill="white"/>
<path d="M260.767 29.6855V9.31458H280V12.738H264.288V17.8025H276.945V21.1976H264.288V26.262H280V29.6855H260.767Z" fill="white"/>
<defs>
<linearGradient id="paint0_linear_442_1647" x1="61.4758" y1="19.5" x2="0.984387" y2="19.2164" gradientUnits="userSpaceOnUse">
<stop stop-color="#FF006E"/>
<stop offset="1" stop-color="#FE8F10"/>
</linearGradient>
<linearGradient id="paint1_linear_442_1647" x1="61.4758" y1="19.5" x2="0.984387" y2="19.2164" gradientUnits="userSpaceOnUse">
<stop stop-color="#FF006E"/>
<stop offset="1" stop-color="#FE8F10"/>
</linearGradient>
<linearGradient id="paint2_linear_442_1647" x1="61.4758" y1="19.5" x2="0.984387" y2="19.2164" gradientUnits="userSpaceOnUse">
<stop stop-color="#FF006E"/>
<stop offset="1" stop-color="#FE8F10"/>
</linearGradient>
</defs>
</svg>
