<svg width="45" height="45" viewBox="0 0 45 45" fill="none" xmlns="http://www.w3.org/2000/svg">
<path d="M22.5 45C10.125 45 0 34.875 0 22.5C0 10.125 10.125 0 22.5 0C34.875 0 45 10.125 45 22.5C45 34.875 34.875 45 22.5 45ZM22.5 2.25C11.3625 2.25 2.25 11.3625 2.25 22.5C2.25 33.6375 11.3625 42.75 22.5 42.75C33.6375 42.75 42.75 33.6375 42.75 22.5C42.75 11.3625 33.6375 2.25 22.5 2.25Z" fill="white"/>
<path d="M34.875 15.7639C33.9651 16.1485 32.986 16.4079 31.9585 16.524C33.0076 15.9268 33.8119 14.9809 34.1912 13.8526C33.21 14.4062 32.1238 14.808 30.9668 15.0249C30.0409 14.0866 28.721 13.5 27.2605 13.5C24.4566 13.5 22.1832 15.6617 22.1832 18.3283C22.1832 18.7062 22.2279 19.0745 22.3149 19.4285C18.0947 19.2269 14.3527 17.305 11.8483 14.3838C11.4112 15.0965 11.161 15.9259 11.161 16.8115C11.161 18.4864 12.0573 19.9645 13.4198 20.8301C12.5878 20.8048 11.8045 20.5874 11.1198 20.2258C11.1193 20.2459 11.1193 20.2664 11.1193 20.287C11.1193 22.6259 12.8696 24.5769 15.1928 25.0212C14.7667 25.131 14.3181 25.1903 13.8549 25.1903C13.5273 25.1903 13.2093 25.1602 12.8993 25.1033C13.5459 27.0214 15.4209 28.4177 17.6425 28.4564C15.9047 29.7515 13.7157 30.5235 11.3363 30.5235C10.9268 30.5235 10.5224 30.5006 10.125 30.4557C12.3728 31.8263 15.0415 32.625 17.9088 32.625C27.249 32.625 32.3559 25.2681 32.3559 18.8877C32.3559 18.6785 32.3514 18.4697 32.3419 18.2624C33.3336 17.5831 34.1947 16.7322 34.875 15.7639Z" fill="white"/>
</svg>
